HIERARCHY
ROOT root
{
	OFFSET 0.000000 0.000000 0.000000
	CHANNELS 6 Xposition Yposition Zposition Zrotation Yrotation Xrotation
	JOINT lhip
	{
		OFFSET 0.058581 -0.082280 -0.017664
		CHANNELS 3 Zrotation Yrotation Xrotation
		JOINT lknee
		{
			OFFSET 0.043451 -0.386469 0.008037
			CHANNELS 3 Zrotation Yrotation Xrotation
			JOINT lankle
			{
				OFFSET -0.014790 -0.426874 -0.037428
				CHANNELS 3 Zrotation Yrotation Xrotation
				JOINT ltoe
				{
					OFFSET 0.041054 -0.060286 0.122042
					CHANNELS 3 Zrotation Yrotation Xrotation
					End Site
					{
						OFFSET 0.000000 0.000000 0.000000
					}
				}
			}
		}
	}
	JOINT rhip
	{
		OFFSET -0.060310 -0.090513 -0.013543
		CHANNELS 3 Zrotation Yrotation Xrotation
		JOINT rknee
		{
			OFFSET -0.043257 -0.383688 -0.004843
			CHANNELS 3 Zrotation Yrotation Xrotation
			JOINT rankle
			{
				OFFSET 0.019056 -0.420046 -0.034562
				CHANNELS 3 Zrotation Yrotation Xrotation
				JOINT rtoe
				{
					OFFSET -0.034840 -0.062106 0.130323
					CHANNELS 3 Zrotation Yrotation Xrotation
					End Site
					{
						OFFSET 0.000000 0.000000 0.000000
					}
				}
			}
		}
	}
	JOINT lowerback
	{
		OFFSET 0.004439 0.124404 -0.038385
		CHANNELS 3 Zrotation Yrotation Xrotation
		JOINT upperback
		{
			OFFSET 0.004488 0.137956 0.026820
			CHANNELS 3 Zrotation Yrotation Xrotation
			JOINT chest
			{
				OFFSET -0.002265 0.056032 0.002855
				CHANNELS 3 Zrotation Yrotation Xrotation
				JOINT lowerneck
				{
					OFFSET -0.013390 0.211636 -0.033468
					CHANNELS 3 Zrotation Yrotation Xrotation
					JOINT upperneck
					{
						OFFSET 0.010113 0.088937 0.050410
						CHANNELS 3 Zrotation Yrotation Xrotation
						End Site
						{
							OFFSET 0.000000 0.000000 0.000000
						}
					}
				}
				JOINT lclavicle
				{
					OFFSET 0.071702 0.114000 -0.018898
					CHANNELS 3 Zrotation Yrotation Xrotation
					JOINT lshoulder
					{
						OFFSET 0.122921 0.045205 -0.019046
						CHANNELS 3 Zrotation Yrotation Xrotation
						JOINT lelbow
						{
							OFFSET 0.255332 -0.015649 -0.022946
							CHANNELS 3 Zrotation Yrotation Xrotation
							JOINT lwrist
							{
								OFFSET 0.265709 0.012698 -0.007375
								CHANNELS 3 Zrotation Yrotation Xrotation
								End Site
								{
									OFFSET 0.000000 0.000000 0.000000
								}
							}
						}
					}
				}
				JOINT rclavicle
				{
					OFFSET -0.082954 0.112472 -0.023707
					CHANNELS 3 Zrotation Yrotation Xrotation
					JOINT rshoulder
					{
						OFFSET -0.113228 0.046853 -0.008472
						CHANNELS 3 Zrotation Yrotation Xrotation
						JOINT relbow
						{
							OFFSET -0.260127 -0.014369 -0.031269
							CHANNELS 3 Zrotation Yrotation Xrotation
							JOINT rwrist
							{
								OFFSET -0.269108 0.006794 -0.006027
								CHANNELS 3 Zrotation Yrotation Xrotation
								End Site
								{
									OFFSET 0.000000 0.000000 0.000000
								}
							}
						}
					}
				}
			}
		}
	}
}
MOTION
Frames: 13
Frame Time: 0.033333
-1.715523 0.732984 0.975043 97.662515 0.837620 82.491840 8.918137 4.480775 2.968144 0.146231 7.621765 55.081080 0.312848 15.691228 -5.367254 0.000000 -0.000000 0.000000 3.916345 -0.527317 -3.119795 3.141310 -3.015658 11.022023 -2.808423 -6.048573 -11.394824 0.000000 -0.000000 0.000000 0.128638 -0.771126 5.459023 3.399935 -3.278722 3.858250 0.572303 -3.157761 -0.015065 0.755255 -9.570946 -2.595708 4.499114 -6.272452 -5.656593 -24.033244 4.405042 8.712841 -57.230834 1.491872 11.711232 -3.765578 -37.243971 25.945360 -2.214030 -9.220260 -8.790091 21.564668 -3.054652 4.529287 56.002865 -8.442086 9.888995 -6.460721 39.838526 2.562670 0.427783 9.793470 -24.162862 
-1.691617 0.730101 0.979073 95.645667 0.268351 82.245196 7.899221 4.153584 -1.413894 0.584551 9.467300 56.271178 1.453053 15.571124 -6.914243 0.000000 -0.000000 0.000000 3.904689 -1.507250 0.005350 2.899055 -1.716773 8.857770 -2.163055 -4.948667 -12.294988 0.000000 -0.000000 0.000000 -0.199479 1.049584 6.376335 3.181075 -2.619581 3.311489 0.852368 -2.067454 0.133457 0.742203 -10.284640 -2.812818 4.360180 -6.957793 -5.411910 -23.784495 5.290920 8.422622 -56.599644 3.069293 11.061694 -4.048300 -39.029682 24.132540 -0.706767 -9.067521 -9.945172 21.356948 -1.991252 4.297021 55.185054 -6.378741 9.862412 -5.765446 40.741131 2.503208 -0.170780 10.307515 -22.331577 
-1.668711 0.728631 0.981535 93.844421 -0.492618 82.187044 6.939413 3.607746 -5.817541 0.181027 11.331430 55.190309 1.347628 15.100576 -10.550931 0.000000 -0.000000 0.000000 3.361421 -1.786931 2.951974 2.902145 -0.636742 6.495262 -1.336478 -4.246753 -12.439955 0.000000 -0.000000 0.000000 -0.458660 2.560839 7.168998 2.818781 -2.070650 2.423712 0.785608 -1.096633 0.648649 1.008681 -10.269861 -3.191251 4.087682 -8.002446 -4.927880 -23.039115 6.636318 7.808029 -56.385027 3.746352 10.430850 -4.345839 -39.732228 22.840237 -1.207291 -9.461982 -11.762730 20.942076 -1.556117 3.684960 54.970906 -4.000994 10.380605 -5.805487 40.518658 2.495352 1.849969 9.923860 -22.495923 
-1.640322 0.727224 0.983318 91.819973 -0.969922 82.002515 6.165398 2.944281 -10.593652 0.038919 13.176367 51.094299 1.911630 15.911508 -11.083731 0.000000 -0.000000 0.000000 2.864887 -2.676721 6.645801 2.769906 1.126981 3.868690 -0.574448 -3.079651 -13.647541 0.000000 -0.000000 0.000000 -0.239770 4.214551 8.274901 2.404532 -1.675916 1.667467 0.708569 -0.158765 0.987197 1.050119 -10.201127 -3.768727 3.875255 -9.080222 -4.494861 -22.281125 7.999009 6.968999 -56.249564 5.011065 10.046937 -4.721733 -40.782043 22.551022 -0.918140 -9.844961 -12.850694 20.353020 -0.939384 3.102340 54.902844 -1.394985 10.470801 -6.264859 41.429034 1.311365 0.344821 10.269264 -22.264641 
-1.624151 0.725974 0.983168 90.382683 -1.161351 82.654137 6.109156 2.891816 -13.870922 -0.035994 14.545605 47.491159 2.926663 14.743439 -11.993690 0.000000 -0.000000 0.000000 2.369122 -4.043089 7.413159 2.812532 2.490646 3.298361 0.068284 -1.559366 -14.156065 0.000000 -0.000000 0.000000 -0.181801 5.404915 7.702682 2.289093 -1.476295 1.733244 0.685507 0.265160 1.085581 1.013830 -10.063739 -4.049353 3.675774 -9.576726 -4.545059 -22.117266 8.618965 6.565910 -56.301887 5.435324 10.169016 -4.325467 -40.907978 22.326676 -0.702591 -9.517497 -13.371118 20.167377 -0.782531 3.154826 54.780580 0.654137 10.396376 -6.629713 41.668003 0.479304 -0.371039 10.226330 -22.378384 
-1.600255 0.725697 0.982394 89.208442 -1.353619 82.318741 5.749635 2.479667 -16.110727 -0.157230 15.738575 41.492644 0.854844 14.948023 -12.763349 0.000000 -0.000000 0.000000 2.024702 -3.863696 10.459461 2.713578 2.941359 1.563904 0.407391 -1.359401 -14.903635 0.000000 -0.000000 0.000000 0.162817 6.191307 8.163841 2.020965 -1.373077 1.959699 0.515268 0.894104 1.280220 1.227026 -9.523653 -4.589960 3.242569 -10.539218 -4.546049 -22.143424 9.202008 5.983780 -56.246225 6.050443 10.013783 -3.647149 -41.291023 21.797762 -2.232354 -9.861367 -12.960975 20.050615 -0.357881 2.773284 54.696898 2.592488 10.379302 -7.494837 42.524994 -1.069953 -0.142000 10.342284 -22.441099 
-1.576924 0.725655 0.980342 88.164276 -1.494062 82.693616 5.353629 2.225894 -18.625474 -0.849635 16.175270 34.114499 1.051407 14.591473 -11.691806 0.000000 -0.000000 0.000000 1.609715 -4.158436 12.173675 2.692656 3.737211 0.792567 0.304630 -1.053961 -15.499471 0.000000 -0.000000 0.000000 0.142546 6.844496 8.357523 1.795261 -1.213244 1.485631 0.629560 1.127494 1.392127 1.148273 -9.303050 -5.136098 3.076058 -10.813139 -4.127244 -22.233030 9.864152 5.536280 -56.623101 6.675777 10.031208 -2.707868 -40.927894 21.248543 -1.835729 -9.631373 -12.760101 20.124535 -0.210016 2.750995 54.291537 4.376863 10.436397 -7.480026 43.585992 -1.748090 -1.166740 10.665570 -23.163608 
-1.553228 0.725902 0.977747 87.400912 -1.363936 82.857999 5.150680 2.023423 -20.051679 -2.415415 14.843096 25.498510 0.625212 13.508094 -10.975765 0.000000 -0.000000 0.000000 1.234079 -4.914296 13.899258 2.820519 4.636705 0.399296 0.094699 -0.383076 -16.050805 0.000000 -0.000000 0.000000 0.366610 7.468124 8.343146 1.718382 -1.292123 1.592789 0.646693 1.498923 1.582032 1.311745 -8.670611 -5.525465 2.862073 -11.447895 -4.059044 -22.223414 9.860295 5.063293 -57.430348 7.007183 10.289805 -1.495826 -40.100332 20.782776 -0.146442 -9.004507 -13.063445 20.140150 -0.016958 2.713342 54.277958 5.754478 10.425018 -7.945314 44.823470 -2.435266 -2.943051 10.717015 -23.950979 
-1.528677 0.726687 0.975097 86.509650 -1.050008 83.309671 5.038094 1.983134 -20.783233 -3.573630 12.894597 16.163561 0.350101 11.912098 -10.702194 0.000000 -0.000000 0.000000 0.857376 -5.801791 15.140066 3.024557 5.610526 0.551441 0.232011 0.684889 -16.637262 0.000000 -0.000000 0.000000 0.739590 7.945863 7.755347 1.582196 -1.255512 2.052288 0.684667 1.624912 1.508515 1.326104 -8.272582 -5.585194 2.615136 -11.720261 -4.274649 -22.519725 10.033330 4.885028 -58.071745 7.336991 10.460145 -0.475051 -39.711907 20.151681 -0.809081 -8.745944 -12.981961 20.109595 0.185564 2.814974 54.486905 6.699702 10.413326 -8.413640 45.925513 -3.111503 -3.651643 11.046347 -24.450605 
-1.496047 0.727589 0.971361 85.659097 -0.741027 83.580094 4.655519 2.114288 -21.020681 -3.477586 11.068241 6.375361 -0.004492 10.501154 -9.847376 0.000000 -0.000000 0.000000 0.520821 -6.098200 17.179687 3.109532 6.129722 0.674897 0.788289 1.374603 -17.774344 0.000000 -0.000000 0.000000 0.865141 8.371518 7.231416 1.503437 -1.282355 2.465093 0.779861 1.770604 1.411663 1.460862 -7.711975 -5.515370 2.575150 -11.997819 -4.067431 -22.621158 9.823097 5.063623 -59.041595 7.531514 10.859700 0.374682 -39.227743 19.687635 -0.877268 -8.771665 -12.761703 20.128116 0.293184 2.819380 55.050415 7.246758 10.475028 -8.567607 47.149331 -3.798062 -3.236186 11.574409 -25.002570 
-1.468094 0.729263 0.967672 84.666600 -0.514067 83.943287 4.370269 2.546725 -21.252142 -2.699330 11.001999 1.125728 -0.479831 10.124288 -8.847365 0.000000 -0.000000 0.000000 0.058055 -6.124061 18.819968 3.032656 6.914382 0.528151 1.481586 1.955085 -18.326831 0.000000 -0.000000 0.000000 0.969274 8.534681 6.677625 1.462714 -1.250505 2.738193 0.751554 2.065545 1.417862 1.677269 -7.266809 -5.749145 2.544389 -12.181490 -4.073257 -22.874915 10.106109 4.752844 -59.146573 7.970215 11.324017 -0.357002 -39.676037 20.448666 -2.052585 -9.089917 -13.234525 20.328809 0.202596 3.108658 55.334839 7.508893 10.806188 -8.504118 48.068048 -4.280568 -3.551450 11.725569 -25.605844 
-1.438864 0.731446 0.964164 83.705737 -0.045387 84.300784 4.536074 2.939702 -21.500357 -2.375093 11.320989 -1.529695 -0.412057 10.150131 -8.041357 0.000000 -0.000000 0.000000 -0.528448 -6.478102 20.330078 3.204236 7.557124 0.909483 1.735812 2.916017 -18.643756 0.000000 -0.000000 0.000000 1.327492 8.715431 6.093749 1.491858 -1.288975 2.935199 0.712273 2.248273 1.356256 1.651402 -6.891820 -5.586189 2.281100 -12.027137 -4.065295 -23.188015 10.419117 4.784766 -59.247356 8.112712 11.376975 -1.234527 -39.958683 21.294675 -3.133469 -9.135312 -12.147302 20.345329 -0.012146 3.349378 55.706033 7.228911 10.943204 -7.973683 48.707185 -3.614486 -2.539229 11.848497 -25.352236 
-1.408945 0.734135 0.960942 82.612169 0.097718 84.814635 4.913420 2.984693 -21.927130 -2.669220 12.125996 -1.214273 -0.880355 9.731417 -7.931712 0.000000 -0.000000 0.000000 -1.677651 -6.549116 21.516463 3.614461 8.239279 1.629630 2.505556 4.123054 -18.747674 0.000000 -0.000000 0.000000 1.173953 9.177924 5.299776 1.606656 -1.308652 3.286249 0.654334 2.295320 1.257372 1.758315 -6.542602 -5.702140 2.355108 -11.931852 -3.937410 -23.300003 10.363563 4.691118 -59.577663 8.191553 12.046038 -1.817780 -39.904239 22.124063 -3.662578 -9.587284 -12.849316 20.750596 -0.494921 3.352451 55.859904 6.881762 11.266171 -6.960782 48.917153 -2.806542 -1.823031 11.850434 -26.050765 
